# xmcd
#
# Track frame offsets: 
#        150
#        23580
#        52467
#        72300
#        104107
#        135290
#        158505
#        166524
#        190774
#        214485
#        248706
#
# Disc length: 3568 seconds
#
# Revision: 3
# Processed by: cddbd v1.5.2PL0 Copyright (c) Steve Scherf et al.
# Submitted via: ExactAudioCopy v0.99pb5
#
DISCID=950dee0b
DTITLE=Mike Nock - Changing Seasons
DYEAR=2002
DGENRE=Jazz
TTITLE0=Three Dee
TTITLE1=Black Is The Colour
TTITLE2=Communion
TTITLE3=Acceptance
TTITLE4=Epigenesis
TTITLE5=E.S.P.
TTITLE6=Gravity Adjustment
TTITLE7=Time
TTITLE8=Changing Seasons 'Spring to Summer'
TTITLE9=Drowning Joyfully
TTITLE10=Changing Seasons 'Winter to Spring'
EXTD=YEAR: 2002
EXTT0=
EXTT1=
EXTT2=
EXTT3=
EXTT4=
EXTT5=
EXTT6=
EXTT7=
EXTT8=
EXTT9=
EXTT10=
PLAYORDER=
